<svg width="1000" height="200" viewBox="0 0 1000 200" fill="none" xmlns="http://www.w3.org/2000/svg">
<path d="M266.745 69.0312C275.646 69.0312 282.479 71.4427 287.245 76.2604C292.005 81.0833 294.391 88.0417 294.391 97.1354C294.391 107.917 291.62 116.198 286.078 121.99C280.537 127.771 272.599 130.656 262.266 130.656C255.792 130.656 248.193 130.375 239.474 129.823L240.412 112.073L239.474 69.3854L266.745 69.0312ZM265.807 116.74C268.735 116.74 270.964 115.573 272.495 113.24C274.021 110.906 274.787 107.068 274.787 101.719C274.787 97.1667 274.474 93.5833 273.849 90.9688C273.224 88.3594 272.224 86.4792 270.849 85.3229C269.485 84.1719 267.589 83.5938 265.162 83.5938C262.787 83.5938 260.453 83.7188 258.162 83.9688L257.495 110.219L257.682 116.01C261.417 116.5 264.125 116.74 265.807 116.74Z" fill="#3D8160"/>
<path d="M334.272 83.7811L333.98 94.6144H340.334L351.168 94.3228L352.189 95.6353L351.084 109.281L339.022 108.989H333.605V110.219L334.355 129.823H315.584L316.522 112.073L315.584 69.3853H355.939L356.959 70.6978L355.751 84.3436L340.793 83.7811H334.272Z" fill="#3D8160"/>
<path d="M426.533 129.823H407.574L405.887 119.823L405.804 119.552L396.637 119.364L388.991 119.739L387.408 129.823H369.095L387.408 69.3853H410.012L426.533 129.823ZM402.991 105.906L398.887 86.1144H397.762L392.533 105.906L397.762 106.01L402.991 105.906Z" fill="#3D8160"/>
<path d="M486.865 106.01C491.35 112.984 495.829 119.458 500.303 125.427L500.032 127.489C493.683 129.422 487.428 130.573 481.261 130.948L479.49 129.448L478.365 127.114C477.865 126.114 476.865 124.021 475.365 120.823C473.876 117.614 472.574 114.609 471.449 111.802H465.199L465.845 129.823H447.074L448.011 112.073L447.074 69.3851L475.74 69.3018C482.532 69.3018 487.761 70.9059 491.428 74.1143C495.105 77.3226 496.949 81.9476 496.949 87.9893C496.949 91.5309 496.058 94.8591 494.282 97.9684C492.501 101.083 490.032 103.76 486.865 106.01ZM477.24 89.8434C477.24 87.3591 476.6 85.5101 475.324 84.3018C474.042 83.083 471.975 82.4059 469.115 82.2809L465.761 82.5726L465.386 98.1559L472.199 98.5309C473.933 97.7288 475.204 96.6455 476.011 95.2809C476.829 93.9059 477.24 92.0934 477.24 89.8434Z" fill="#3D8160"/>
<path d="M586.696 129.823H570.259L569.78 111.51L568.759 96.3019H567.634L557.926 124.135H543.821L535.801 96.3019H534.676L533.363 109.739L532.426 129.823H516.842L522.717 69.3853H544.301L546.071 77.9894L551.384 99.9269H552.509L558.384 78.6353L560.551 69.3853H581.842L586.696 129.823Z" fill="#3D8160"/>
<path d="M663.174 69.0312C672.075 69.0312 678.908 71.4427 683.674 76.2604C688.434 81.0833 690.82 88.0417 690.82 97.1354C690.82 107.917 688.049 116.198 682.507 121.99C676.965 127.771 669.028 130.656 658.694 130.656C652.221 130.656 644.622 130.375 635.903 129.823L636.84 112.073L635.903 69.3854L663.174 69.0312ZM662.236 116.74C665.163 116.74 667.392 115.573 668.924 113.24C670.45 110.906 671.215 107.068 671.215 101.719C671.215 97.1667 670.903 93.5833 670.278 90.9688C669.653 88.3594 668.653 86.4792 667.278 85.3229C665.913 84.1719 664.017 83.5938 661.59 83.5938C659.215 83.5938 656.882 83.7188 654.59 83.9688L653.924 110.219L654.111 116.01C657.846 116.5 660.554 116.74 662.236 116.74Z" fill="#3D8160"/>
<path d="M751.804 106.01C756.289 112.984 760.768 119.458 765.242 125.427L764.971 127.489C758.622 129.422 752.367 130.573 746.2 130.948L744.429 129.448L743.304 127.114C742.804 126.114 741.804 124.021 740.304 120.823C738.815 117.614 737.513 114.609 736.388 111.802H730.138L730.784 129.823H712.013L712.95 112.073L712.013 69.3851L740.679 69.3018C747.471 69.3018 752.7 70.9059 756.367 74.1143C760.044 77.3226 761.888 81.9476 761.888 87.9893C761.888 91.5309 760.997 94.8591 759.221 97.9684C757.44 101.083 754.971 103.76 751.804 106.01ZM742.179 89.8434C742.179 87.3591 741.539 85.5101 740.263 84.3018C738.981 83.083 736.914 82.4059 734.054 82.2809L730.7 82.5726L730.325 98.1559L737.138 98.5309C738.872 97.7288 740.143 96.6455 740.95 95.2809C741.768 93.9059 742.179 92.0934 742.179 89.8434Z" fill="#3D8160"/>
<path d="M827.636 114.885L828.657 116.177L827.532 129.823H784.948L785.886 112.073L784.948 69.3853H828.282L829.302 70.6978L828.094 84.3436L813.24 83.7811H803.636L803.448 92.2811H812.677L822.407 91.9894L823.427 93.3019L822.302 106.948L811.469 106.656H803.073L802.969 110.219L803.157 115.448H812.136L827.636 114.885Z" fill="#3D8160"/>
<path d="M901.5 129.823H882.541L880.854 119.823L880.77 119.552L871.604 119.364L863.958 119.739L862.375 129.823H844.062L862.375 69.3853H884.979L901.5 129.823ZM877.958 105.906L873.854 86.1144H872.729L867.5 105.906L872.729 106.01L877.958 105.906Z" fill="#3D8160"/>
<path d="M988.728 129.823H972.291L971.812 111.51L970.791 96.3019H969.666L959.957 124.135H945.853L937.832 96.3019H936.707L935.395 109.739L934.457 129.823H918.874L924.749 69.3853H946.332L948.103 77.9894L953.416 99.9269H954.541L960.416 78.6353L962.582 69.3853H983.874L988.728 129.823Z" fill="#3D8160"/>
<path d="M117.646 23.2602C117.396 23.2133 117.146 23.2185 116.901 23.281C116.656 23.3383 116.432 23.4477 116.229 23.5987C116.026 23.755 115.864 23.9425 115.745 24.1664C115.625 24.3904 115.552 24.6248 115.531 24.88L113.213 51.2289L127.286 58.3435L141.364 30.9789C135.87 26.8279 122.63 24.1508 117.646 23.2602Z" fill="#FFCC4A"/>
<path d="M94.7812 23.2602C95.0312 23.2133 95.276 23.2185 95.526 23.281C95.7708 23.3383 95.9948 23.4477 96.1979 23.5987C96.3958 23.755 96.5573 23.9425 96.6823 24.1664C96.8021 24.3904 96.875 24.6248 96.8958 24.88L99.2083 51.2289L85.1406 58.3435L71.0625 30.9789C76.5573 26.8279 89.7969 24.1508 94.7812 23.2602Z" fill="#FFCC4A"/>
<path d="M153.156 40.1821C152.963 40.0363 152.75 39.9321 152.515 39.8696C152.286 39.8071 152.047 39.7915 151.812 39.828C151.573 39.8592 151.349 39.9373 151.14 40.0623C150.932 40.1873 150.76 40.3436 150.614 40.5363L133.557 63.7446L143.187 75.8228L169.323 58.0728C163.833 48.9842 156.297 42.6144 153.156 40.1821Z" fill="#FFCC4A"/>
<path d="M140.875 83.6822L171.286 71.7811C171.812 71.578 172.354 71.4895 172.911 71.5103C173.474 71.5311 174.005 71.6665 174.51 71.9061C175.016 72.1509 175.453 72.4895 175.818 72.9113C176.182 73.3384 176.448 73.8228 176.615 74.3593C178.12 79.2343 180.344 87.8957 180.693 97.3176C180.693 97.3176 150.677 98.4478 143.651 103.411L140.875 83.6822Z" fill="#FFCC4A"/>
<path d="M59.2707 40.1821C59.4634 40.0363 59.6717 39.9321 59.9061 39.8696C60.1405 39.8071 60.3748 39.7915 60.6144 39.828C60.854 39.8592 61.078 39.9373 61.2863 40.0623C61.4894 40.1873 61.6665 40.3436 61.8123 40.5363L78.8644 63.7446L69.2394 75.8228L43.104 58.0728C48.5884 48.9842 56.1248 42.6144 59.2707 40.1821Z" fill="#FFCC4A"/>
<path d="M71.5521 83.6822L41.1406 71.7811C40.6146 71.578 40.0729 71.4895 39.5156 71.5103C38.9531 71.5311 38.4219 71.6613 37.9115 71.9061C37.4063 72.1509 36.974 72.4895 36.6094 72.9113C36.2448 73.3384 35.9792 73.8228 35.8125 74.3593C34.3073 79.2343 32.0833 87.8957 31.7344 97.3176C31.7344 97.3176 61.7552 98.4478 68.7812 103.411L71.5521 83.6822Z" fill="#FFCC4A"/>
<path d="M98.1981 138.745C98.1981 138.745 70.3804 104.786 25.4429 112.057C25.4429 112.057 29.3387 130.51 35.3856 135.193C35.3856 135.193 75.2345 137.63 90.5679 157.375L98.1981 138.745Z" fill="#3D8162"/>
<path d="M87.3021 167.698C87.3021 167.698 75.6302 150.729 39.4531 139.766C39.4531 139.766 47.8438 168.417 82.8333 174.99C82.8125 174.984 89.3542 173.724 87.3021 167.698Z" fill="#3D8162"/>
<path d="M109.583 176.448C109.583 176.448 138.594 145.099 172.167 146.734C172.167 146.713 145.057 181.286 109.583 176.448Z" fill="#3D8162"/>
<path d="M91.2187 173.339C91.2187 173.339 119.943 99.6823 186.734 113.891C186.734 113.891 183.646 128.099 177.729 136.63C177.729 136.63 132.333 130.943 102.219 181.391C102.219 181.38 87.328 181.583 91.2187 173.339Z" fill="#3D8162"/>
<path d="M104.667 79.0207C105.292 79.1301 105.922 79.1718 106.557 79.151C107.193 79.1249 107.813 79.0312 108.427 78.8749C109.047 78.7187 109.635 78.4999 110.203 78.2187C110.771 77.9374 111.307 77.5989 111.802 77.203C112.302 76.8072 112.75 76.3697 113.156 75.8801C113.557 75.3905 113.906 74.8593 114.198 74.2968C114.49 73.7343 114.719 73.1457 114.885 72.5364C115.057 71.9218 115.156 71.302 115.193 70.6666C115.229 70.0364 115.198 69.4062 115.104 68.776C115.005 68.151 114.844 67.5416 114.62 66.9478C114.391 66.3541 114.109 65.7916 113.76 65.2603C113.417 64.7239 113.021 64.2343 112.573 63.7864C112.125 63.3385 111.63 62.9426 111.099 62.5989C110.568 62.2499 110.005 61.9635 109.411 61.7395C108.818 61.5155 108.208 61.3541 107.583 61.2551C106.953 61.1562 106.323 61.1301 105.693 61.1666C105.057 61.203 104.432 61.302 103.823 61.4687C103.208 61.6405 102.625 61.8697 102.062 62.1614C101.495 62.453 100.969 62.802 100.479 63.203C99.9896 63.6093 99.5469 64.0572 99.1562 64.5572C98.7604 65.052 98.4219 65.5832 98.1406 66.1562C97.8594 66.7239 97.6406 67.3124 97.4844 67.927C97.3229 68.5416 97.2344 69.1666 97.2083 69.802C97.1875 70.4374 97.2292 71.0676 97.3333 71.6926C97.4948 72.6041 97.7865 73.4739 98.2188 74.2968C98.6458 75.1197 99.1875 75.8593 99.8438 76.5155C100.5 77.1718 101.24 77.7135 102.062 78.1405C102.885 78.5676 103.755 78.8645 104.667 79.0207ZM105.271 66.8697C105.865 66.703 106.464 66.6978 107.057 66.8541C107.651 67.0103 108.167 67.3072 108.604 67.7447C109.042 68.177 109.339 68.6926 109.495 69.2916C109.651 69.8853 109.646 70.4791 109.479 71.0728C109.323 71.6457 109.036 72.1457 108.615 72.5676C108.193 72.9895 107.698 73.276 107.12 73.4322C106.526 73.5989 105.932 73.5989 105.339 73.4426C104.74 73.2864 104.224 72.9895 103.792 72.5572C103.354 72.1197 103.057 71.6041 102.901 71.0103C102.745 70.4114 102.75 69.8176 102.917 69.2239C103.073 68.651 103.365 68.151 103.786 67.7291C104.208 67.3072 104.714 67.0207 105.286 66.8697H105.271Z" fill="#0E4F55"/>
<mask id="mask0_58_399" style="mask-type:luminance" maskUnits="userSpaceOnUse" x="19" y="10" width="174" height="176">
<path d="M19 10H193V185.333H19V10Z" fill="white"/>
</mask>
<g mask="url(#mask0_58_399)">
<path d="M106.214 10.1094C58.1198 10.1094 19 49.2292 19 97.3177C19 98.8594 19.0417 100.438 19.125 101.948C19.3594 106.63 19.974 111.266 20.9635 115.849C21.9531 120.432 23.3073 124.906 25.026 129.271C26.7448 133.63 28.8073 137.828 31.2083 141.854C33.6094 145.88 36.3229 149.688 39.3438 153.271C42.151 156.609 45.1927 159.724 48.4635 162.604C51.7344 165.49 55.1979 168.12 58.8594 170.49C62.5208 172.859 66.3385 174.943 70.3125 176.745C74.2865 178.542 78.3698 180.042 82.5625 181.234V181.297L85.6146 182.042C89.5469 182.995 93.526 183.677 97.5573 184.078C101.583 184.479 105.62 184.604 109.661 184.443C113.708 184.286 117.719 183.844 121.703 183.125C125.688 182.411 129.599 181.417 133.448 180.156C137.292 178.891 141.031 177.37 144.661 175.583C148.297 173.802 151.792 171.776 155.141 169.505C158.49 167.234 161.667 164.745 164.672 162.031C167.677 159.318 170.479 156.411 173.078 153.312C176.099 149.724 178.812 145.917 181.214 141.891C183.615 137.865 185.677 133.672 187.396 129.307C189.115 124.943 190.469 120.469 191.458 115.885C192.448 111.302 193.057 106.672 193.297 101.99C193.38 100.443 193.422 98.875 193.422 97.3333C193.422 49.2292 154.302 10.1094 106.214 10.1094ZM177.948 130.776C177.812 131.057 177.615 131.281 177.354 131.448C177.089 131.615 176.802 131.693 176.495 131.693C172.63 131.682 168.786 131.927 164.953 132.427C161.125 132.927 157.344 133.682 153.615 134.688C149.891 135.693 146.245 136.943 142.682 138.432C139.12 139.927 135.672 141.651 132.339 143.604C129.005 145.557 125.818 147.724 122.776 150.099C119.734 152.479 116.865 155.052 114.161 157.812C111.464 160.573 108.958 163.505 106.651 166.599C104.344 169.698 102.25 172.932 100.375 176.307C98.5 176.177 96.6354 175.974 94.7812 175.714C94.2396 175.641 93.7344 175.464 93.2604 175.193C92.7917 174.917 92.3906 174.562 92.0625 174.125C91.7292 173.693 91.4948 173.214 91.3594 172.682C91.2188 172.156 91.1875 171.62 91.2604 171.083C91.6406 168.505 92.1458 165.958 92.7812 163.432C93.4115 160.906 94.1615 158.422 95.0417 155.969C95.9167 153.521 96.9115 151.12 98.026 148.766C99.1354 146.411 100.365 144.12 101.703 141.891C103.042 139.656 104.484 137.495 106.036 135.406C107.589 133.318 109.24 131.307 110.99 129.38C112.734 127.453 114.578 125.62 116.505 123.875C118.438 122.13 120.448 120.479 122.542 118.932C124.63 117.385 126.797 115.943 129.031 114.609C131.266 113.276 133.557 112.052 135.911 110.948C138.266 109.839 140.672 108.849 143.125 107.974C145.573 107.104 148.062 106.354 150.589 105.729C153.115 105.099 155.667 104.599 158.24 104.224C160.818 103.849 163.406 103.599 166.005 103.479C168.604 103.359 171.203 103.37 173.802 103.505C176.401 103.641 178.984 103.901 181.557 104.292C182.036 104.365 182.484 104.526 182.901 104.776C183.312 105.026 183.667 105.349 183.953 105.734C184.245 106.125 184.448 106.552 184.568 107.026C184.688 107.495 184.714 107.969 184.646 108.448C183.531 116.224 181.297 123.667 177.948 130.776ZM34.474 130.776C31.1302 123.677 28.901 116.24 27.7812 108.469C27.7135 107.984 27.7448 107.51 27.8646 107.042C27.9844 106.573 28.1875 106.146 28.474 105.755C28.7656 105.365 29.1146 105.047 29.5312 104.797C29.9427 104.547 30.3906 104.385 30.8698 104.312C33.875 103.854 36.901 103.573 39.9427 103.464C42.9792 103.359 46.0156 103.422 49.0469 103.667C52.0833 103.906 55.0885 104.323 58.0729 104.911C61.0573 105.5 64 106.255 66.8958 107.182C69.7969 108.109 72.6302 109.198 75.401 110.453C78.1719 111.703 80.8646 113.109 83.474 114.672C86.0833 116.234 88.5938 117.943 91.0104 119.797C93.4219 121.646 95.724 123.63 97.9062 125.745C98.3281 126.151 98.6719 126.609 98.9271 127.135C99.1823 127.661 99.3438 128.214 99.401 128.792C99.4583 129.375 99.4167 129.948 99.2708 130.51C99.125 131.078 98.8854 131.599 98.5521 132.078C94.651 137.557 91.4271 143.406 88.8802 149.63C85.1094 146.74 81.125 144.177 76.9323 141.938C72.7344 139.703 68.3906 137.823 63.8854 136.297C59.3854 134.771 54.7917 133.62 50.099 132.849C45.4115 132.073 40.6875 131.688 35.9375 131.688C35.625 131.693 35.3385 131.609 35.0729 131.448C34.8073 131.281 34.6094 131.057 34.474 130.776ZM78.3021 71.3542L90.8281 61.5L106.214 56.2812L121.594 61.4896L134.12 71.3385L138.01 101.333C133.797 102.969 129.74 104.922 125.828 107.188L123.635 82.776H88.7917L86.5938 107.214C82.6875 104.943 78.6302 102.99 74.4167 101.349L78.3021 71.3542ZM102.224 118.818C99.6771 116.443 96.9948 114.224 94.1771 112.172L96.1094 90.7708H102.224V118.818ZM110.208 90.7604H116.323L118.255 112.141C115.443 114.193 112.76 116.401 110.214 118.776L110.208 90.7604ZM169.635 95.3906C161.505 95.3854 153.531 96.4896 145.708 98.7135L143.641 82.7188L143.714 82.8177C144.016 83.25 144.359 83.6458 144.74 84.0052C145.12 84.3698 145.531 84.6875 145.974 84.9688C146.417 85.25 146.885 85.4844 147.375 85.6719C147.865 85.8646 148.365 86 148.885 86.0938C149.401 86.1823 149.922 86.2188 150.448 86.2083C150.974 86.1927 151.49 86.1302 152 86.0156C152.516 85.901 153.01 85.7344 153.49 85.5208C153.969 85.3073 154.422 85.0521 154.854 84.75L149.047 76.5052L174.344 64.3125C174.76 64.1094 175.203 63.9948 175.667 63.974C176.135 63.9479 176.583 64.0156 177.021 64.1771C177.458 64.3385 177.849 64.5781 178.188 64.8958C178.526 65.2135 178.786 65.5885 178.974 66.0156C182.635 74.5 184.74 83.3542 185.281 92.5781C185.297 92.8333 185.281 93.0885 185.245 93.3385C185.203 93.5885 185.135 93.8333 185.042 94.0729C184.948 94.3073 184.828 94.5312 184.682 94.7396C184.536 94.9531 184.37 95.1406 184.188 95.3177C184 95.4896 183.797 95.6406 183.573 95.7708C183.354 95.8958 183.125 96 182.88 96.0781C182.635 96.151 182.391 96.2031 182.135 96.224C181.88 96.2448 181.625 96.2396 181.375 96.2031C177.479 95.6771 173.568 95.4167 169.641 95.4167L169.635 95.3906ZM168.833 54.7969L145.156 70.9375L143.396 68.4375L131.865 59.3646L148.703 34.6667C148.964 34.2813 149.292 33.9635 149.682 33.7083C150.073 33.4583 150.5 33.2917 150.964 33.2135C151.422 33.1354 151.88 33.151 152.333 33.2604C152.786 33.3698 153.203 33.5625 153.573 33.8438C159.708 38.4323 165.073 43.7917 169.661 49.9271C169.943 50.3021 170.141 50.7188 170.25 51.1719C170.365 51.6302 170.38 52.0885 170.302 52.5521C170.224 53.0156 170.057 53.4427 169.802 53.8385C169.547 54.2344 169.224 54.5625 168.839 54.8229L168.833 54.7969ZM139.214 29.1771L126.641 55.2812L125.464 54.3594L109.682 49.0104L111.724 21.8021C111.755 21.3385 111.88 20.8958 112.094 20.4844C112.307 20.0677 112.594 19.7135 112.953 19.4167C113.312 19.1146 113.714 18.901 114.161 18.7656C114.609 18.6354 115.062 18.5938 115.526 18.6458C123.146 19.5417 130.479 21.5052 137.521 24.5469C137.948 24.7344 138.318 25 138.635 25.3385C138.953 25.6771 139.193 26.0677 139.349 26.5052C139.51 26.9375 139.578 27.3906 139.557 27.8542C139.531 28.3177 139.417 28.7604 139.214 29.1771ZM100.724 21.8021L102.755 49.0104L86.9635 54.3594L85.7865 55.2812L73.2083 29.1771C73.0052 28.7604 72.8958 28.3177 72.8698 27.849C72.849 27.3854 72.9167 26.9375 73.0781 26.5C73.2396 26.0625 73.4792 25.6719 73.8021 25.3333C74.1198 24.9948 74.4948 24.7344 74.9167 24.5469C81.9635 21.5052 89.2969 19.5417 96.9167 18.6458C97.3802 18.5938 97.8333 18.6354 98.2812 18.7656C98.7292 18.901 99.1302 19.1146 99.4896 19.4115C99.849 19.7083 100.135 20.0625 100.349 20.4792C100.568 20.8958 100.688 21.3333 100.724 21.8021ZM63.7188 34.6927L80.5573 59.3906L69.026 68.4635L67.2656 70.9635L43.5833 54.8229C43.1979 54.5625 42.8802 54.2344 42.625 53.8438C42.375 53.4479 42.2083 53.026 42.1302 52.5625C42.0521 52.1042 42.0677 51.6458 42.1771 51.1927C42.2865 50.7396 42.4792 50.3229 42.7552 49.9479C47.3438 43.8177 52.7083 38.4531 58.8438 33.8646C59.2188 33.5833 59.6302 33.3906 60.0885 33.2812C60.5417 33.1719 60.9948 33.1562 61.4583 33.2396C61.9167 33.3177 62.3438 33.4792 62.7344 33.7344C63.1302 33.9844 63.4531 34.3073 63.7188 34.6927ZM63.375 76.5L57.5677 84.7552C57.9948 85.0573 58.4479 85.3125 58.9271 85.526C59.4063 85.7396 59.9062 85.901 60.4167 86.0156C60.9271 86.1354 61.4479 86.1979 61.9688 86.2083C62.4948 86.224 63.0156 86.1875 63.5312 86.0938C64.0521 86.0052 64.5521 85.8646 65.0417 85.6771C65.5313 85.4896 66 85.2552 66.4427 84.974C66.8854 84.6927 67.2969 84.3698 67.6771 84.0104C68.0573 83.651 68.401 83.2552 68.7031 82.8229L68.776 82.724L66.6979 98.7552C58.8802 96.5312 50.9063 95.4167 42.776 95.4219C38.8438 95.4167 34.9323 95.6719 31.0365 96.1927C30.7813 96.224 30.5313 96.2344 30.276 96.2135C30.0208 96.1875 29.776 96.1406 29.5312 96.0625C29.2865 95.9896 29.0573 95.8854 28.8333 95.7552C28.6146 95.6302 28.4115 95.4792 28.224 95.3021C28.0365 95.1302 27.875 94.9375 27.7292 94.7292C27.5833 94.5208 27.4635 94.2969 27.3698 94.0573C27.276 93.8229 27.2083 93.5781 27.1667 93.3281C27.125 93.0729 27.1146 92.8229 27.1302 92.5677C27.6719 83.3438 29.7708 74.4896 33.4375 66.0052C33.625 65.5781 33.8854 65.2031 34.224 64.8854C34.5625 64.5677 34.9531 64.3281 35.3906 64.1667C35.8281 64.0052 36.276 63.9375 36.7396 63.9583C37.2083 63.9844 37.6458 64.099 38.0677 64.3021L63.375 76.5ZM39.4531 139.766C43.6927 139.953 47.8854 140.479 52.0417 141.339C56.1979 142.198 60.2552 143.391 64.2188 144.901C68.1823 146.417 71.9948 148.24 75.6667 150.37C79.3385 152.5 82.8125 154.906 86.0938 157.594C85.0365 161.13 84.2135 164.714 83.6146 168.354C83.5677 168.651 83.4844 168.932 83.3698 169.203C83.2604 169.479 83.1146 169.74 82.9427 169.979C82.776 170.224 82.5781 170.443 82.3594 170.641C82.1406 170.844 81.901 171.016 81.6406 171.161C81.3854 171.307 81.1146 171.422 80.8281 171.51C80.5469 171.594 80.2552 171.646 79.9583 171.667C79.6667 171.693 79.3698 171.677 79.0781 171.635C78.7813 171.594 78.5 171.516 78.224 171.406C74.25 169.891 70.4271 168.068 66.7448 165.938C63.0677 163.807 59.5781 161.401 56.2865 158.714C52.9948 156.026 49.9323 153.094 47.1094 149.911C44.2865 146.734 41.7344 143.354 39.4531 139.766ZM124.948 174.312C119.906 175.531 114.786 176.245 109.604 176.453C111.297 173.766 113.146 171.188 115.151 168.724C117.161 166.26 119.307 163.922 121.594 161.719C123.885 159.516 126.297 157.458 128.839 155.547C131.375 153.635 134.021 151.88 136.771 150.286C139.521 148.698 142.354 147.276 145.281 146.031C148.203 144.781 151.188 143.714 154.24 142.828C157.292 141.938 160.385 141.24 163.521 140.729C166.656 140.219 169.812 139.896 172.99 139.766C162.208 156.667 145.188 169.406 124.932 174.307L124.948 174.312Z" fill="#0E4F55"/>
</g>
</svg>
